<?xml version="1.0" encoding="UTF-8"?>
<svg width="36px" height="36px" viewBox="0 0 36 36" version="1.1" xmlns="http://www.w3.org/2000/svg" xmlns:xlink="http://www.w3.org/1999/xlink">
    <!-- Generator: Sketch 60 (88103) - https://sketch.com -->
    <title>clojure logo</title>
    <desc>Created with Sketch.</desc>
    <g id="clojure-logo" stroke="none" stroke-width="1" fill="none" fill-rule="evenodd">
        <path d="M17.929821,0 C27.8162335,0 35.8599222,8.04368872 35.8599222,17.9301012 C35.8599222,27.8173541 27.8162335,35.8606226 17.929821,35.8606226 C8.04368872,35.8606226 4.97379915e-14,27.8173541 4.97379915e-14,17.9301012 C4.97379915e-14,8.04368872 8.04368872,0 17.929821,0 Z M17.9298276,0.840466926 C8.50710773,0.840466926 0.840466926,8.506958 0.840466926,17.9297608 C0.840466926,27.3533647 8.50710773,35.0194553 17.9298276,35.0194553 C27.3528144,35.0194553 35.0194553,27.3533647 35.0194553,17.9297608 C35.0194553,8.506958 27.3528144,0.840466926 17.9298276,0.840466926 Z M9.37470817,10.003506 C9.98740856,10.0023969 10.5872218,10.0835019 11.1623813,10.2224591 C9.01190661,12.1088872 7.65259144,14.8748638 7.65259144,17.960358 C7.65329183,23.6469572 12.2617121,28.254677 17.9466304,28.254677 C19.5896031,28.254677 21.1412451,27.8682023 22.5190506,27.1840623 C23.3382257,27.4730428 24.2746459,27.6446381 25.4092763,27.7868171 C25.8346926,27.838786 26.2941479,27.8649805 26.7835798,27.8649805 C28.0893852,27.8609183 29.6142724,27.6719533 31.1999533,27.2767938 C28.2682646,31.4413074 23.4271751,34.1642802 17.9470506,34.1642802 C8.99887938,34.1642802 1.74410895,26.9095097 1.74410895,17.9606381 C1.74410895,17.371751 1.71455253,16.8748949 1.83866148,16.2177899 C3.16603891,11.7035019 6.35435019,10.0319533 9.37470817,10.003506 Z M17.2741167,18.2525603 C18.2905214,21.8707704 18.9329183,24.0226459 20.084358,25.4909416 C20.2577743,25.7101634 20.4482802,25.9047315 20.6478911,26.0872529 C19.7985992,26.3696498 18.8911751,26.5256965 17.9466304,26.5275175 C16.9090739,26.5256965 15.9155019,26.3398132 14.9956109,26.0018054 C14.9767004,25.7636732 14.964778,25.5298833 14.964778,25.3074397 C14.9636732,24.7450272 15.0222257,24.2378054 15.1167782,23.8284981 C15.3799844,22.6792996 16.1005447,20.885463 16.7512062,19.411284 C16.9352685,18.9938521 17.1130272,18.6016342 17.2741167,18.2525603 Z M17.9470506,1.75671595 C26.8959222,1.75671595 34.1499922,9.01218677 34.1499922,17.9606381 C34.1499922,18.6613074 34.1004047,19.3497899 34.0142568,20.0270661 C33.5737121,21.7805603 32.7793307,22.95007 31.831144,23.7487938 C30.3769961,24.9718132 28.4373385,25.3678132 26.6428016,25.3671102 C26.1375409,25.3694942 25.642786,25.3371362 25.1788482,25.2851673 C27.0689183,23.4187704 28.2413696,20.8269105 28.2413696,17.960358 L28.2413696,17.960358 C28.2413696,12.2747393 23.632249,7.66701946 17.9466304,7.66631907 C16.4724514,7.66631907 15.0716732,7.97855253 13.8039689,8.53690272 C13.6444202,8.42750195 13.4815097,8.3210428 13.3099144,8.22214786 C12.5994397,7.82264591 11.118677,7.23866148 9.23519066,7.23319844 C7.87153307,7.2208716 6.30896498,7.56658366 4.77861479,8.52499611 C7.7191284,4.42842023 12.5198755,1.75671595 17.9470506,1.75671595 Z M13.023035,10.9575875 C13.5050428,11.2360623 13.9413852,11.5621634 14.300965,11.9395331 C15.0062568,12.6619144 15.7965759,14.2571206 16.3441401,15.6307237 C16.4938833,16.0015097 16.6276576,16.3545058 16.7450428,16.676965 C14.7684047,20.6971984 13.4502724,22.7028327 12.9244202,24.8932296 C10.7806693,23.336965 9.38493385,20.8138833 9.37947082,17.960358 C9.38493385,15.0635486 10.8239533,12.5074086 13.023035,10.9575875 Z M17.9466304,9.39277821 C22.6783191,9.40216342 26.5065058,13.2297899 26.5144903,17.960358 L26.5144903,17.960358 C26.5098677,20.7979144 25.1301012,23.3085292 23.0069416,24.8671751 C22.6913463,24.7776654 22.4645603,24.6967004 22.3645447,24.6471128 C22.0293385,24.5021323 21.5371051,24.0080778 21.0895564,23.3205759 C20.4079377,22.2946459 19.7829105,20.8868638 19.3441868,19.7497121 C18.9023813,18.6110195 18.6450584,17.7527626 18.6435175,17.7502412 C18.6432374,17.7491206 18.642537,17.748 18.6421167,17.7465992 C17.8328872,14.6468171 16.9963424,11.8130428 15.256716,9.83010117 C16.1026459,9.54980545 17.0061479,9.39459922 17.9466304,9.39277821 Z" id="Combined-Shape" fill="#322F35"></path>
    </g>
</svg>