<?xml version="1.0" encoding="UTF-8"?>
<svg width="36px" height="36px" viewBox="0 0 36 36" version="1.1" xmlns="http://www.w3.org/2000/svg" xmlns:xlink="http://www.w3.org/1999/xlink">
    <!-- Generator: Sketch 60 (88103) - https://sketch.com -->
    <title>common lisp logo</title>
    <desc>Created with Sketch.</desc>
    <g id="common-lisp-logo" stroke="none" stroke-width="1" fill="none" fill-rule="evenodd">
        <path d="M16.4330106,0.000217146816 C26.6715361,0.000217146816 34.9714286,8.29623888 34.9714286,18.5301512 C34.9714286,25.5545611 31.0607066,31.6659411 25.2964398,34.8079108 C22.1987257,35.4695572 18.8393023,34.5978575 16.4330106,32.1927393 C12.7284714,28.4898955 12.6598689,22.5285481 16.2272029,18.7421245 L16.4330106,18.5301512 C20.2074467,14.7570081 20.2074467,8.64019943 16.4330106,4.86698397 C14.0268637,2.46193822 10.6672955,1.59016613 7.56958137,2.25181248 C10.2026782,0.815892971 13.2225457,0.000217146816 16.4330106,0.000217146816 Z M3.93512424,9.97919908 C3.93512424,9.97919908 5.24207761,14.527122 7.29230276,19.5600061 C8.26151064,15.4284261 11.6128235,9.97919908 11.6128235,9.97919908 L11.6128235,9.97919908 L14.8119192,9.97919908 C12.3895512,15.2584725 8.70179635,19.9452246 10.0829031,25.0533863 C10.2965286,25.8435112 10.629567,26.5967935 11.0532696,27.2972367 C11.3734182,27.8264959 11.7000117,28.3320861 12.0320363,28.8072033 L12.0320363,28.8072033 C12.3151806,29.2123993 12.6021629,29.595591 12.8925487,29.9519289 L12.8925487,29.9519289 L9.7559475,29.9519289 C5.02461412,23.6125448 0.970871756,9.97919908 0.970871756,9.97919908 L0.970871756,9.97919908 Z M22.8497664,6.87356715 L19.7093567,6.87356715 C20.0000226,7.22959799 20.2872808,7.61238719 20.5706964,8.01716163 L20.5707689,8.01730627 C20.9031967,8.49201405 21.2301868,8.99716851 21.550724,9.52597157 C21.9749411,10.2258112 22.3083839,10.9784443 22.5222688,11.7678883 C23.9050525,16.8716478 20.2128199,21.5543609 17.7875107,26.8290847 L20.9904907,26.8290847 C20.9904907,26.8290847 24.3458728,21.3845538 25.3162575,17.2565343 C27.3690445,22.2850811 28.6776573,26.8290847 28.6776573,26.8290847 L31.645509,26.8290847 C31.645509,26.8290847 27.5868445,13.2074881 22.8497664,6.87356715 Z" id="Combined-Shape" fill="#30EDD5"></path>
    </g>
</svg>