<?xml version="1.0" encoding="UTF-8"?>
<svg width="36px" height="36px" viewBox="0 0 36 36" version="1.1" xmlns="http://www.w3.org/2000/svg" xmlns:xlink="http://www.w3.org/1999/xlink" style="background: #000000;">
    <!-- Generator: Sketch 60 (88103) - https://sketch.com -->
    <title>haskell logo</title>
    <desc>Created with Sketch.</desc>
    <g id="haskell-logo" stroke="none" stroke-width="1" fill="none" fill-rule="evenodd">
        <rect fill="#000000" x="0" y="0" width="36" height="36"></rect>
        <path d="M6.35294118,5 L14.8235294,17.7087912 L6.35294118,30.4175824 L-2.84217094e-14,30.4175824 L8.47058824,17.7087912 L-2.84217094e-14,5 L6.35294118,5 Z M14.8441558,5 L31.7472527,30.4175824 L25.4085914,30.4175824 L20.1263736,22.4745879 L14.8441558,30.4175824 L8.50549451,30.4175824 L16.957043,17.7087912 L8.50549451,5 L14.8441558,5 Z M36,18.7678571 L36,23.0041209 L28.9411765,23.0041209 L26.117647,18.7678571 L36,18.7678571 Z M36,12.4134615 L36,16.6497253 L24.7058824,16.6497253 L21.8823529,12.4134615 L36,12.4134615 Z" id="Combined-Shape" fill="#D9EBF5"></path>
    </g>
</svg>