<?xml version="1.0" encoding="UTF-8"?>
<svg width="36px" height="36px" viewBox="0 0 36 36" version="1.1" xmlns="http://www.w3.org/2000/svg" xmlns:xlink="http://www.w3.org/1999/xlink">
    <!-- Generator: Sketch 60 (88103) - https://sketch.com -->
    <title>js logo</title>
    <desc>Created with Sketch.</desc>
    <g id="js-logo" stroke="none" stroke-width="1" fill="none" fill-rule="evenodd">
        <path d="M36,0 L36,36 L0,36 L0,0 L36,0 Z M27.4071624,16.3891051 C24.3926401,16.3891051 22.4637335,18.3164284 22.4637335,20.8481785 C22.4637335,23.59661 24.081894,24.8966979 26.5176873,25.9344874 L26.5176873,25.9344874 L27.3615483,26.2965733 C28.9010245,26.9699961 29.8190084,27.3799799 29.8190084,28.5375143 C29.8190084,29.5034569 28.925542,30.2025392 27.5268995,30.2025392 C25.8619845,30.2025392 24.9206234,29.3341033 24.1970696,28.1526199 L24.1970696,28.1526199 L21.4539512,29.746368 C22.4449177,31.7044829 24.4701841,33.1984436 27.6050136,33.1984436 C30.8111152,33.1984436 33.1984436,31.5334187 33.1984436,28.4941781 C33.1984436,25.6750401 31.5791428,24.4211395 28.7111557,23.1911879 L28.7111557,23.1911879 L27.8672947,22.8296722 C26.4190468,22.2024368 25.7918528,21.7924529 25.7918528,20.7797529 C25.7918528,19.9603553 26.4184766,19.3331199 27.4071624,19.3331199 C28.3764622,19.3331199 29.0008053,19.7419634 29.5795343,20.7797529 L29.5795343,20.7797529 L32.2080473,19.0919194 C31.0962034,17.1360854 29.5533062,16.3891051 27.4071624,16.3891051 Z M19.6293869,16.5818374 L16.2539429,16.5818374 L16.2539429,28.0602452 C16.2539429,29.7475084 15.5543365,30.1814413 14.4453435,30.1814413 C13.2856048,30.1814413 12.8032356,29.3859928 12.2729716,28.4451397 L12.2729716,28.4451397 L9.52529183,30.108739 C10.321258,31.7934363 11.8863921,33.1921712 14.589028,33.1921712 C17.5801731,33.1921712 19.6293869,31.6012742 19.6293869,28.1058623 L19.6293869,28.1058623 L19.6293869,16.5818374 Z" id="Combined-Shape" fill="#D9EBF5"></path>
    </g>
</svg>