<?xml version="1.0" encoding="UTF-8"?>
<svg width="36px" height="36px" viewBox="0 0 36 36" version="1.1" xmlns="http://www.w3.org/2000/svg" xmlns:xlink="http://www.w3.org/1999/xlink">
    <!-- Generator: Sketch 60 (88103) - https://sketch.com -->
    <title>lua logo</title>
    <desc>Created with Sketch.</desc>
    <g id="lua-logo" stroke="none" stroke-width="1" fill="none" fill-rule="evenodd">
        <path d="M18.0494505,4.05494505 C25.7189029,4.05494505 31.9450549,10.2810971 31.9450549,17.9505495 C31.9450549,25.6200018 25.7189029,31.8461538 18.0494505,31.8461538 C10.3799982,31.8461538 4.15384615,25.6200018 4.15384615,17.9505495 C4.15384615,10.2810971 10.3799982,4.05494505 18.0494505,4.05494505 Z M16.4218991,18.3420831 L15.3854866,18.3420831 L15.3854866,23.3936343 C15.3854866,24.4837867 16.1992623,25.1824054 17.4736658,25.1824054 C18.3729136,25.1824054 18.9645303,24.8881496 19.5387591,24.146714 L19.6616477,23.9809347 L19.6616477,24.8945131 L20.5982575,24.8945131 L20.5982575,18.3420831 L19.5618451,18.3420831 L19.5618451,22.0578137 C19.5618451,23.3974728 18.8593877,24.2726656 17.7730739,24.2726656 C16.9993632,24.2726656 16.4888041,23.8307058 16.4280065,23.1270705 L16.4218991,22.9829078 L16.4218991,18.3420831 Z M24.9627057,18.1539934 C24.0107416,18.1539934 23.2238358,18.43037 22.7862395,18.9178678 C22.520099,19.2181288 22.3934737,19.5487193 22.3497488,20.0740919 L22.3371274,20.2805583 L23.3888941,20.2805583 C23.4771811,19.4782982 23.9531631,19.1174731 24.9281586,19.1174731 C25.8062303,19.1174731 26.3233119,19.4244833 26.3845172,19.978409 L26.3906518,20.0924686 L26.3906518,20.3688452 C26.3906518,20.8064416 26.1296293,20.9945313 25.3043379,21.094334 C23.8303291,21.2824237 23.6038537,21.332325 23.204643,21.4935447 C22.4407686,21.8044685 22.0530736,22.3917689 22.0530736,23.2439302 C22.0530736,24.4338853 22.878365,25.1824054 24.2026698,25.1824054 C25.0279613,25.1824054 25.692033,24.8945131 26.4290374,24.2189257 C26.5019701,24.8829974 26.8282481,25.1824054 27.5038355,25.1824054 C27.6829686,25.1824054 27.8247822,25.1664114 28.06256,25.1099881 L28.2178086,25.0710871 L28.2178086,24.2841813 C28.1026516,24.3110512 28.0527503,24.3110512 27.9913333,24.3110512 C27.663136,24.3110512 27.4686359,24.1586986 27.4330178,23.8903714 L27.4270642,23.7966836 L27.4270642,19.9427646 C27.4270642,18.7796794 26.5749029,18.1539934 24.9627057,18.1539934 Z M9.78118208,15.7779218 L8.61809696,15.7779218 L8.61809696,24.8945131 L14.2838185,24.8945131 L14.2838185,23.8696163 L9.78118208,23.8696163 L9.78118208,15.7779218 Z M26.3906518,21.6547644 L26.3906518,22.8293652 C26.3906518,23.1825132 26.2870105,23.3936343 25.9760868,23.6815266 C25.5500061,24.0692217 25.039477,24.268827 24.4253066,24.268827 C23.6115309,24.268827 23.1355488,23.881132 23.1355488,23.2170603 C23.1355488,22.5299572 23.6000152,22.1768092 24.713199,22.0155895 C25.814867,21.8658855 26.0413424,21.8159842 26.3906518,21.6547644 Z M31.9450549,0 C34.1829256,0 36,1.81707443 36,4.05494505 C36,6.29664109 34.1829256,8.10989011 31.9450549,8.10989011 C29.7071843,8.10989011 27.8901099,6.29281567 27.8901099,4.05494505 C27.8901099,1.81707443 29.7071843,0 31.9450549,0 Z" id="Combined-Shape" fill="#322F35"></path>
    </g>
</svg>