<?xml version="1.0" encoding="UTF-8"?>
<svg width="36px" height="36px" viewBox="0 0 36 36" version="1.1" xmlns="http://www.w3.org/2000/svg" xmlns:xlink="http://www.w3.org/1999/xlink">
    <!-- Generator: Sketch 60 (88103) - https://sketch.com -->
    <title>Overtone Logo</title>
    <desc>Created with Sketch.</desc>
    <g id="Overtone-Logo" stroke="none" stroke-width="1" fill="none" fill-rule="evenodd">
        <path d="M16.875,1 C20.4625675,1 23.7886569,2.1195208 26.5229731,4.02826728 L25.0497126,6.14222471 C22.7267676,4.53985458 19.9104587,3.6015625 16.875,3.6015625 C8.9143331,3.6015625 2.4609375,10.0549581 2.4609375,18.015625 C2.4609375,25.9762919 8.9143331,32.4296875 16.875,32.4296875 C24.4926165,32.4296875 30.7300689,26.5205024 31.253506,19.0359832 L33.6985311,19.2027742 C33.0214385,27.9019408 25.7479442,34.75 16.875,34.75 C7.55519485,34.75 -8.52651283e-14,27.1948052 -8.52651283e-14,17.875 C-8.52651283e-14,8.55519485 7.55519485,1 16.875,1 Z M30.5507812,6.203125 C33.5603017,6.203125 36,8.64282334 36,11.6523438 C36,14.6618642 33.5603017,17.1015625 30.5507812,17.1015625 C27.5412608,17.1015625 25.1015625,14.6618642 25.1015625,11.6523438 C25.1015625,8.64282334 27.5412608,6.203125 30.5507812,6.203125 Z M30.5859375,8.8046875 C29.0326366,8.8046875 27.7734375,10.0638866 27.7734375,11.6171875 C27.7734375,13.1704884 29.0326366,14.4296875 30.5859375,14.4296875 C32.1392384,14.4296875 33.3984375,13.1704884 33.3984375,11.6171875 C33.3984375,10.0638866 32.1392384,8.8046875 30.5859375,8.8046875 Z" id="Combined-Shape" fill="#30EDD5"></path>
    </g>
</svg>