<?xml version="1.0" encoding="UTF-8"?>
<svg width="36px" height="36px" viewBox="0 0 36 36" version="1.1" xmlns="http://www.w3.org/2000/svg" xmlns:xlink="http://www.w3.org/1999/xlink">
    <!-- Generator: Sketch 60 (88103) - https://sketch.com -->
    <title>python logo</title>
    <desc>Created with Sketch.</desc>
    <g id="python-logo" stroke="none" stroke-width="1" fill="none" fill-rule="evenodd">
        <path d="M30.9096208,9.03619263 C31.1740561,9.02600277 36,8.96255968 36,17.9066562 C36,27.1027034 30.1549873,26.4413027 30.1549873,26.4413027 L17.9761804,26.4413027 L17.9761804,27.6706977 L26.6927847,27.6706977 L26.7029676,31.7652944 C26.7029676,31.7652944 27.2733725,35.7176471 18.1391076,35.7176471 C8.59338908,35.7176471 9.33085616,30.9524713 9.33085616,30.9524713 L9.33085616,23.0782469 C9.33085616,18.5961388 13.6334868,18.4018827 14.1396786,18.3945381 L22.8334471,18.3943501 C28.0177607,18.3943501 27.8536409,13.3040451 27.8536409,13.3040451 L27.8536409,9.03672445 Z M22.9454595,29.8348394 C22.0782209,29.8348394 21.3772854,30.5342152 21.3772854,31.399524 C21.3772854,32.2648328 22.0782209,32.9642086 22.9454595,32.9642086 C23.8126981,32.9642086 24.5136336,32.2648328 24.5136336,31.399524 C24.5136336,30.5342152 23.8126981,29.8348394 22.9454595,29.8348394 Z M17.8608928,0 C27.4066109,0 26.6691438,4.76517555 26.6691438,4.7651762 L26.6691438,12.6394013 C26.6691438,17.1215067 22.3665131,17.3157626 21.8603212,17.3231072 L13.1665533,17.3232951 C7.98224212,17.3232951 8.14635932,22.4136006 8.14635932,22.4136006 L8.14635932,26.6809226 L5.10165753,26.6809226 C5.10165753,26.6809226 -2.66453526e-14,27.0070338 -2.66453526e-14,17.8109891 C-2.66453526e-14,8.61494242 5.84501282,9.27634514 5.84501282,9.27634514 L18.02382,9.27634514 L18.02382,8.04695 L9.30721553,8.04695 L9.29703258,3.95235297 C9.29703258,3.95235297 8.72663036,0 17.8608928,0 Z M13.0545408,2.7534387 C12.1873025,2.7534387 11.4863666,3.45281489 11.4863666,4.31812342 C11.4863666,5.18343195 12.1873025,5.88280815 13.0545408,5.88280815 C13.9217791,5.88280815 14.622715,5.18343195 14.622715,4.31812342 C14.622715,3.45281489 13.9217791,2.7534387 13.0545408,2.7534387 Z" id="Combined-Shape" fill="#30EDD5"></path>
    </g>
</svg>