<?xml version="1.0" encoding="UTF-8"?>
<svg width="36px" height="36px" viewBox="0 0 36 36" version="1.1" xmlns="http://www.w3.org/2000/svg" xmlns:xlink="http://www.w3.org/1999/xlink">
    <!-- Generator: Sketch 60 (88103) - https://sketch.com -->
    <title>ruby logo</title>
    <desc>Created with Sketch.</desc>
    <g id="ruby-logo" stroke="none" stroke-width="1" fill="none" fill-rule="evenodd">
        <path d="M25.7013846,27.0980809 L33.3537551,33.8918912 L18.2951537,32.7087615 C21.2451554,30.9267182 23.6808355,28.7956149 25.5030034,27.1017552 C25.5323932,27.1091038 25.5654567,27.1091038 25.5985202,27.1091038 C25.6315838,27.1127781 25.6646473,27.1054295 25.7013846,27.0980809 Z M34.1729959,31.1582001 L35.5837065,12.6910876 C34.8856986,14.4731309 33.783581,16.5491195 32.3545017,18.7647321 L34.1729959,31.1582001 Z M26.2120324,26.6792088 L33.849708,33.4583219 L31.8107903,19.5877789 C30.1282239,22.0863138 28.1113486,24.6436377 26.2120324,26.6792088 Z M17.2922266,33.2893034 C15.6463975,34.2005338 13.95281,34.9280484 12.2408538,35.4571499 L29.8379996,34.2740201 L17.2959003,33.2893034 L17.2922266,33.2893034 Z M2.59732403,24.3937842 L7.2078497,35.1668789 L11.0028083,22.5970437 L2.59732403,24.3937842 Z M12.1196209,21.9577127 L24.9556182,26.0802953 L21.678655,13.0989367 L12.1196209,21.9577127 Z M22.3987052,11.8129261 L34.3640296,11.0119252 L25.0107241,3.36934782 L22.3987052,11.8129261 Z M29.2024451,0.0367431605 L21.3516934,0 L24.8417328,2.44342017 L29.2024451,0.0367431605 Z M0.301245502,19.8266094 L0.0440847076,27.483884 L1.92870596,24.0483985 L0.301245502,19.8266094 Z M4.59215705,22.9020119 C6.08368965,22.9975441 7.59359089,22.6668557 9.1145133,22.0018045 C10.1394828,21.5167948 11.2011895,20.903184 12.2702436,20.1793437 C13.7985135,19.0990948 15.3414783,17.7469465 16.8954642,16.2074081 C22.4795272,10.6702138 24.7756057,4.47531695 22.3325781,2.00985088 C21.7484558,1.42196031 20.91452,1.12066639 19.8528133,1.11692555 C16.6346297,1.10229481 11.8293965,3.52366909 7.72951874,7.58746264 C3.81700094,11.4712147 1.2747828,16.078807 1.26373031,19.3305767 C1.26008789,20.4879863 1.57970202,21.3955423 2.21525656,22.0385477 C2.77733658,22.6080666 3.57820877,22.8395486 4.59215705,22.9020119 Z M16.2488885,33.1055876 C16.4252273,33.0137297 16.5978924,32.9218718 16.7705575,32.8300139 L11.6016256,22.8615945 L7.71482384,35.7400722 C7.74788737,35.7363979 8.00872189,35.703329 8.00872189,35.703329 C8.34670465,35.6592372 8.6846874,35.6114711 9.01532271,35.5526821 C11.1497573,35.1889248 13.2658233,34.5201993 15.2973936,33.5685514 C15.6170077,33.4215788 15.9366218,33.2672575 16.2488885,33.1055876 Z M26.7961548,24.8824683 L26.9173877,24.7428443 C27.0018834,24.6436377 27.0900528,24.5407569 27.1745485,24.437876 C27.1745485,24.437876 27.4390568,24.1218849 27.5419211,23.9969581 C27.7145862,23.7875221 27.8872513,23.5744118 28.0599164,23.3576271 C28.2178866,23.1592141 28.3758568,22.960801 28.5375007,22.7550393 C28.7028184,22.541929 28.8681361,22.3288186 29.0334537,22.112034 C29.4081737,21.6196756 29.7828937,21.1052714 30.1870036,20.5357524 C30.6131557,19.9331646 31.024613,19.3269024 31.4140279,18.7316632 L30.71602,18.3054426 C28.8571149,17.1700789 25.1246096,14.88098 22.6705609,13.3708361 L25.8483336,25.9553686 C26.1459054,25.6320288 26.458172,25.2792944 26.7961548,24.8824683 Z M35.7710665,4.62228959 L25.8924183,3.23339812 L35.3118508,10.9384389 C35.6424861,9.84716701 35.8592359,8.78896399 35.9510791,7.78955002 C35.965774,7.64992601 35.9731214,7.510302 35.9804689,7.36700368 C35.9878163,7.2347283 35.9914901,7.10612724 35.9951638,6.97385186 C36.0208799,6.12141054 35.9437316,5.33143259 35.7710665,4.62228959 Z M31.9724342,18.136424 C31.9981503,18.1033552 32.0238664,18.0702863 32.0532562,18.0261945 C32.2406162,17.7616438 32.5087982,17.3244002 32.8063699,16.798973 C33.6329582,15.3402695 34.6542539,13.2569323 35.0804061,11.7247425 L22.7954676,12.544115 C25.3597281,14.1203966 29.1032545,16.4131698 30.9658334,17.5522078 L31.9577393,18.1584699 C31.961413,18.1511213 31.9687605,18.1437726 31.9724342,18.136424 Z M17.2444681,32.6793669 L17.2812054,32.657321 C19.9630251,31.1728974 22.3582942,29.343088 25.0401139,26.7306493 L11.9800193,22.5162087 L17.2444681,32.6793669 Z M0,28.8617526 C0.0587796102,30.5629609 0.418804723,31.9665496 1.07272789,33.0467985 L1.68256634,25.7790014 L0,28.8617526 Z M2.38057421,25.3013403 L1.67521889,33.6861295 C2.67814599,34.9978604 4.01905585,35.5857509 6.01021514,35.5857509 C6.21227005,35.5857509 6.41799869,35.5784023 6.64209595,35.5710537 L6.28941829,34.6965664 C5.52895708,32.8006194 3.35778523,27.4030491 2.38057421,25.3013403 Z M35.6241175,4.10421103 C35.4808422,3.65961878 35.2934822,3.2517697 35.0730587,2.8843381 C34.184017,1.40358873 32.6483997,0.45561519 30.502944,0.0661376889 L25.7160795,2.71164524 L35.6241175,4.10421103 Z" id="Shape" fill="#322F35"></path>
    </g>
</svg>