<?xml version="1.0" encoding="UTF-8"?>
<svg width="36px" height="36px" viewBox="0 0 36 36" version="1.1" xmlns="http://www.w3.org/2000/svg" xmlns:xlink="http://www.w3.org/1999/xlink">
    <!-- Generator: Sketch 60 (88103) - https://sketch.com -->
    <title>scheme logo</title>
    <desc>Created with Sketch.</desc>
    <g id="scheme-logo" stroke="none" stroke-width="1" fill="none" fill-rule="evenodd">
        <path d="M29.6231027,7.58688067 L30.5258964,7.58688067 C30.5258964,4.94068396 30.0995772,3.01465457 29.2469386,1.80879274 C28.3943001,0.602930914 27.3159631,0 26.0119277,0 C24.9586684,0 23.9472051,0.393579903 22.9775377,1.18073971 C22.0078703,1.9678995 21.1385135,4.10327975 20.3694669,7.58688067 L18.212793,17.3342638 L10.7396671,0.3517097 L6,0.3517097 L16.7332144,23.5143057 C16.1647886,26.5122113 15.4793342,28.7313337 14.6768509,30.1716678 C13.8743676,31.612002 12.8796225,32.3321703 11.692616,32.3321703 C10.7396671,32.3321703 9.91210618,31.9720874 9.20993327,31.2519191 C8.50776037,30.5317507 8.10651871,29.4012553 8.0062083,27.8604327 L7.10341456,27.8604327 C7.15356977,30.3224006 7.64676265,32.2902992 8.58299318,33.7641312 C9.51922364,35.2379632 10.6895119,35.9832511 12.0938577,36 C12.9966514,36 13.84929,35.6315414 14.6517733,34.8946267 C15.4542566,34.1577119 16.1564295,32.8848569 16.758292,31.0760642 C17.3601545,29.2672715 18.2880258,25.5324486 19.541906,19.871598 L21.3224159,11.9078856 C22.0413072,8.60851369 22.7936354,6.40614096 23.5794002,5.30076762 C24.365165,4.19539428 25.318114,3.63433365 26.438247,3.61758548 C28.3107082,3.61758548 29.3723266,4.94068396 29.6231027,7.58688067 Z" id="path10" fill="#322F35" transform="translate(18.262948, 18.000000) scale(1, -1) translate(-18.262948, -18.000000) "></path>
    </g>
</svg>