<?xml version="1.0" encoding="UTF-8"?>
<svg width="36px" height="36px" viewBox="0 0 36 36" version="1.1" xmlns="http://www.w3.org/2000/svg" xmlns:xlink="http://www.w3.org/1999/xlink">
    <!-- Generator: Sketch 60 (88103) - https://sketch.com -->
    <title>SuperCollider Logo</title>
    <desc>Created with Sketch.</desc>
    <g id="SuperCollider-Logo" stroke="none" stroke-width="1" fill="none" fill-rule="evenodd">
        <path d="M32.423103,18.5848922 C32.882194,25.1501987 29.0211434,31.0039642 23.2950948,33.2753949 L22.7094502,31.3437362 C27.4948605,29.4245099 30.7985187,24.6392839 30.6071929,19.1604305 C30.3635705,12.1839963 24.5454687,6.72475488 17.6120989,6.96687349 C16.8531703,6.99337586 16.112337,7.08709084 15.3950501,7.2421363 L14.7954921,5.26667003 C15.5049978,5.10487188 16.2356718,4.99559067 16.9837026,4.94328326 C24.9448874,4.38658299 31.8573425,10.4941393 32.423103,18.5848922 Z M25.7192379,10.2502673 C26.191836,10.6325979 26.6403543,11.0567377 27.0596932,11.5224608 C31.4329667,16.379473 30.9765343,23.9199802 26.0402229,28.364655 C22.0249668,31.9800078 16.2824359,32.4334251 11.9256221,29.8627867 L13.1107281,28.176539 C16.6237498,30.2837764 21.228356,30.0510504 24.5427099,27.2699773 C28.7220021,23.7631347 29.2671302,17.5322914 25.7602877,13.3529993 C25.3570548,12.8724451 24.9178067,12.4399398 24.4498034,12.0561187 L25.7192379,10.2502673 Z M27.3238744,17.9932717 C27.4190444,18.5259833 27.4687114,19.0744594 27.4687114,19.6345359 C27.4687114,24.7544803 23.3181764,28.9050153 18.198232,28.9050153 C14.1734588,28.9050153 10.7477308,26.3401982 9.46633547,22.7558515 L11.3942836,22.2419474 C12.4359097,24.8972693 15.0215235,26.7773643 18.0462569,26.7773643 C21.9911321,26.7773643 25.1890853,23.5794111 25.1890853,19.6345359 C25.1890853,19.2774567 25.1628833,18.9264973 25.112297,18.5834754 L27.3238744,17.9932717 Z M13.4974948,15.0508764 L14.6992708,16.5386256 C13.9468546,17.3516697 13.4870047,18.4394009 13.4870047,19.6345359 C13.4870047,22.1525413 15.5282515,24.1937881 18.0462569,24.1937881 C18.8955152,24.1937881 19.6905404,23.9615883 20.3713088,23.5572123 L21.5870619,25.0626332 C20.5551226,25.7613513 19.3103559,26.169464 17.9702694,26.169464 C14.403095,26.169464 11.5113288,23.2776978 11.5113288,19.7105234 C11.5113288,17.8794073 12.2733135,16.2262622 13.4974948,15.0508764 Z M18.0462569,15.5389365 C18.2029771,15.5389365 18.3576413,15.547739 18.5097821,15.5648767 L17.9913977,17.7858014 C17.3190097,17.8173038 16.6799845,18.2116933 16.3599662,18.8678281 C15.9062733,19.7980365 16.261883,20.9096067 17.1527945,21.3837213 L16.6618739,23.4902535 C15.0811821,22.922634 13.9506575,21.4106091 13.9506575,19.6345359 C13.9506575,17.3725988 15.7843198,15.5389365 18.0462569,15.5389365 Z M18.0462569,18.1147852 C18.697917,18.1147852 19.2537808,18.524938 19.4697818,19.1011771 L18.5599634,19.3093545 C18.4521711,19.1394251 18.2623857,19.0266356 18.0462569,19.0266356 C17.7341613,19.0266356 17.4769972,19.2618256 17.4423314,19.5646388 L16.5328093,19.7738841 C16.5286377,19.7279935 16.5265062,19.6815136 16.5265062,19.6345359 C16.5265062,18.7952007 17.2069218,18.1147852 18.0462569,18.1147852 Z M22.296833,2.54724309 C30.150758,4.50544655 35.5257355,11.2656248 35.9999471,18.8531034 L33.5082365,18.8062979 C33.1240482,12.4264816 28.7904504,6.69138159 22.2969808,4.82940913 C14.0627147,2.46827134 5.47344282,7.22938249 3.11230503,15.4636485 C2.84849889,16.3836499 2.67360146,17.3080828 2.58252322,18.2277657 L-0.000114386874,18.1801302 C0.0810882737,17.2853926 0.231798202,16.3857737 0.455776428,15.4874461 C2.83932849,5.92754095 12.6179026,0.134014713 22.296833,2.54724309 Z" id="Combined-Shape" fill="#322F35"></path>
    </g>
</svg>