<?xml version="1.0" encoding="UTF-8"?>
<svg width="36px" height="36px" viewBox="0 0 36 36" version="1.1" xmlns="http://www.w3.org/2000/svg" xmlns:xlink="http://www.w3.org/1999/xlink" style="background: #000000;">
    <!-- Generator: Sketch 60 (88103) - https://sketch.com -->
    <title>swift logo</title>
    <desc>Created with Sketch.</desc>
    <g id="swift-logo" stroke="none" stroke-width="1" fill="none" fill-rule="evenodd">
        <rect fill="#000000" x="0" y="0" width="36" height="36"></rect>
        <path d="M27.154421,31.9977949 C22.9138427,34.4450458 17.0831611,34.6964881 11.2170429,32.1847881 C6.46735895,30.1659877 2.5263561,26.6321792 0,22.5945784 C1.2126582,23.6039786 2.62739581,24.4118618 4.14317312,25.1180789 C10.2011941,27.9547477 16.2579429,27.7604926 20.5203283,25.1253408 C20.5176024,25.1226176 20.5157852,25.1208021 20.5139679,25.1180789 C14.4506769,20.4741117 9.29692503,14.4168027 5.45705275,9.4705601 C4.64828079,8.66285838 4.04195169,7.65327662 3.43562259,6.74472565 C8.08408511,10.9847512 15.4613466,16.3349354 18.0881972,17.8499435 C12.5310134,11.9941514 7.57897744,4.72592522 7.7806934,4.92744217 C16.5726016,13.8114349 24.7584533,18.8593437 24.7584533,18.8593437 C25.0292252,19.011843 25.2382102,19.1389258 25.4063069,19.2523925 C25.5834898,18.8021565 25.7388656,18.3346734 25.8697084,17.8499435 C27.284446,12.7012762 25.6679924,6.84548413 22.1306941,2 C30.3156372,6.94669647 35.1668151,16.234177 33.1451124,24.008011 C33.0924118,24.2176975 33.0351681,24.4246609 32.9733812,24.6279933 C32.9970056,24.6561331 33.02063,24.6851806 33.0442544,24.7151358 C37.0858426,29.7630446 35.9745876,35.1132288 35.4693891,34.1038286 C33.2768638,29.8175086 29.2180116,31.1282765 27.1545118,31.9978857 L27.154421,31.9977949 Z" id="Path" fill="#D9EBF5"></path>
    </g>
</svg>