<?xml version="1.0" encoding="UTF-8"?>
<svg width="36px" height="36px" viewBox="0 0 36 36" version="1.1" xmlns="http://www.w3.org/2000/svg" xmlns:xlink="http://www.w3.org/1999/xlink">
    <!-- Generator: Sketch 60 (88103) - https://sketch.com -->
    <title>tidalcycles logo</title>
    <desc>Created with Sketch.</desc>
    <g id="tidalcycles-logo" stroke="none" stroke-width="1" fill="none" fill-rule="evenodd">
        <path d="M18.0001041,0.649372888 L18.0001041,1.29853751 C27.2246629,1.29853751 34.7025263,8.77653075 34.7025263,18.0012496 L35.3516797,18.0012496 C35.3516797,8.41768871 27.5832904,0.649372888 18.0001041,0.649372888 Z M5.84196368,18.0012496 L5.19426816,18.0012496 C5.19426816,25.0741658 10.9273107,30.8070996 18.0001041,30.8070996 L18.0001041,30.1579349 C11.2859383,30.1579349 5.84279673,24.7153237 5.84279673,18.0012496 L7.13943734,18.0012496 C7.13943734,12.0029851 12.0019438,7.14060258 18.0001041,7.14060258 L18.0001041,6.49122969 C24.356892,6.49122969 29.508883,11.6443514 29.508883,18.0012496 L30.1582446,18.0012496 C30.1582446,11.2863424 24.7148948,5.84289813 18.0001041,5.84289813 C11.2859383,5.84289813 5.84196368,11.2863424 5.84196368,18.0012496 Z M18.0001041,7.80851113 C23.6296403,7.80851113 28.1926657,12.3716157 28.1926657,18.0012496 L27.5614229,18.0012496 C27.5614229,12.7206692 23.2805929,8.43893183 18.0001041,8.43893183 L18.0001041,9.08809645 C22.9225901,9.08809645 26.9131026,13.0784699 26.9131026,18.0012496 C26.9131026,22.9167399 22.9153009,26.9160689 18.0001041,26.9160689 L18.0001041,26.2652381 C13.4362457,26.2652381 9.73625903,22.5651872 9.73625903,18.0012496 L9.08543958,18.0012496 C9.08543958,22.9248623 13.0765769,26.9160689 18.0001041,26.9160689 L18.0001041,28.1973203 C12.3689018,28.1973203 7.80421037,23.6325496 7.80421037,18.0012496 L7.14110344,18.0012496 C7.14110344,23.998681 12.0036099,28.8604387 18.0001041,28.8604387 L18.0001041,28.1973203 C23.6411034,28.1973203 28.1926657,23.6415051 28.1926657,18.0012496 L28.8597296,18.0012496 C28.8597296,12.0029851 23.9980562,7.14143565 18.0001041,7.14143565 L18.0001041,7.80851113 Z M25.6145876,18.0012496 L26.263741,18.0012496 C26.263741,13.437312 22.5639625,9.73726107 18.0001041,9.73726107 L18.0001041,10.386634 C22.2059598,10.386634 25.6145876,13.796154 25.6145876,18.0012496 Z M18.0001041,11.0235109 L18.0001041,11.6807979 C21.4907873,11.6807979 24.3202379,14.5102976 24.3202379,18.0012496 L24.9777217,18.0012496 C24.9777217,14.1474985 21.8537883,11.0235109 18.0001041,11.0235109 Z M11.6814282,18.0012496 L11.0314418,18.0012496 C11.0314418,21.8500023 14.1512099,24.9700329 18.0001041,24.9700329 L18.0001041,24.3200352 C14.5108788,24.3200352 11.6814282,21.4905355 11.6814282,18.0012496 Z M12.980568,18.0012496 C12.980568,20.7730597 15.2283422,23.0208729 18.0001041,23.0208729 L18.0001041,23.6465034 C21.1304936,23.6465034 23.653174,21.1316934 23.653174,18.0012496 C23.653174,14.8789281 21.1223714,12.3480816 18.0001041,12.3480816 L18.0001041,12.9810015 C15.2275091,12.9810015 12.9797349,15.2288147 12.9797349,18.0012496 L12.980568,18.0012496 Z M3.24680809,18.0012496 C3.24680809,26.1496506 9.85267762,32.7548017 18.0001041,32.7548017 C26.161276,32.7548017 32.754025,26.1627713 32.754025,18.0012496 C32.754025,9.85201555 26.1491967,3.24603138 18.0001041,3.24603138 L18.0001041,3.89540427 C25.7903609,3.89540427 32.1057046,10.2108576 32.1057046,18.0012496 L31.4565513,18.0012496 C31.4565513,10.5694914 25.4323582,4.54456889 18.0001041,4.54456889 L18.0001041,5.19373351 C25.0737306,5.19373351 30.8073979,10.9275003 30.8073979,18.0012496 L31.4565513,18.0012496 C31.4565513,25.4450872 25.4446456,31.4637617 18.0001041,31.4637617 L18.0001041,32.1056371 C10.2104721,32.1056371 3.89596145,25.7908085 3.89596145,18.0012496 L3.24680809,18.0012496 Z M1.29997281,18.0012496 C1.29997281,27.2243023 8.77721148,34.7016708 18.0001041,34.7016708 L18.0001041,34.0522979 C9.13500599,34.0522979 1.94829312,26.8662933 1.94829312,18.0012496 L1.29997281,18.0012496 Z M34.0525399,18.0012496 C34.0525399,9.1353728 26.8658271,1.9485352 18.0001041,1.9485352 L18.0001041,2.59686676 C26.5069912,2.59686676 33.4033866,9.49400657 33.4033866,18.0012496 L34.0525399,18.0012496 Z M35.9985422,18.0012496 C35.9985422,27.9417781 27.9404601,36 18.0001041,36 C8.05953986,36 0.0016660978,27.9417781 0.0016660978,18.0012496 L0,18.0012496 C0,8.059888 8.05870681,0 18.0001041,0 C27.9412932,0 36,8.059888 36,18.0012496 L35.9985422,18.0012496" id="path58" fill="#D9EBF5"></path>
    </g>
</svg>